<svg width="18" height="18" viewBox="0 0 18 18" fill="none" xmlns="http://www.w3.org/2000/svg">
<g clip-path="url(#clip0_201_4230)">
<path d="M6.92308 12.4773C6.92308 12.7614 6.878 13.0525 6.78786 13.3508C6.69772 13.6492 6.54267 13.919 6.32272 14.1605C6.10277 14.402 5.84135 14.5227 5.53847 14.5227C5.23558 14.5227 4.97416 14.402 4.75421 14.1605C4.53425 13.919 4.37921 13.6492 4.28906 13.3508C4.19892 13.0525 4.15384 12.7614 4.15384 12.4773C4.15384 12.1932 4.19892 11.902 4.28906 11.6037C4.37921 11.3054 4.53425 11.0355 4.75421 10.794C4.97416 10.5526 5.23558 10.4318 5.53847 10.4318C5.84135 10.4318 6.10277 10.5526 6.32272 10.794C6.54267 11.0355 6.69772 11.3054 6.78786 11.6037C6.878 11.902 6.92308 12.1932 6.92308 12.4773ZM13.8461 12.4773C13.8461 12.7614 13.801 13.0525 13.711 13.3508C13.6208 13.6492 13.4657 13.919 13.2458 14.1605C13.0259 14.402 12.7644 14.5227 12.4615 14.5227C12.1586 14.5227 11.8973 14.402 11.6773 14.1605C11.4573 13.919 11.3023 13.6492 11.2121 13.3508C11.122 13.0525 11.0769 12.7614 11.0769 12.4773C11.0769 12.1932 11.122 11.902 11.2121 11.6037C11.3023 11.3054 11.4573 11.0355 11.6773 10.794C11.8973 10.5526 12.1586 10.4318 12.4615 10.4318C12.7644 10.4318 13.0259 10.5526 13.2458 10.794C13.4657 11.0355 13.6208 11.3054 13.711 11.6037C13.801 11.902 13.8461 12.1932 13.8461 12.4773ZM15.5769 12.4773C15.5769 11.625 15.3281 10.9006 14.8305 10.3039C14.333 9.7074 13.6586 9.40912 12.8077 9.40912C12.512 9.40912 11.8089 9.48367 10.6983 9.63285C10.1863 9.71092 9.62018 9.75 9 9.75C8.37982 9.75 7.81373 9.71092 7.30169 9.63285C6.20553 9.48367 5.50241 9.40912 5.19231 9.40912C4.34134 9.40912 3.66706 9.7074 3.16947 10.3039C2.67187 10.9006 2.42308 11.625 2.42308 12.4773C2.42308 13.1023 2.53847 13.6474 2.76923 14.1126C3 14.5777 3.29206 14.9435 3.64543 15.2099C3.9988 15.4762 4.4387 15.6892 4.96514 15.8491C5.49159 16.0089 5.99639 16.1136 6.47956 16.1633C6.96274 16.213 7.5 16.238 8.09138 16.238H9.90862C10.5 16.238 11.0372 16.213 11.5205 16.1633C12.0036 16.1136 12.5084 16.0089 13.0349 15.8491C13.5613 15.6892 14.0012 15.4762 14.3546 15.2099C14.708 14.9435 15 14.5777 15.2308 14.1126C15.4615 13.6474 15.5769 13.1023 15.5769 12.4773ZM18 10.6023C18 12.0724 17.78 13.2479 17.3401 14.1286C17.0661 14.6754 16.6857 15.1478 16.1989 15.5455C15.7121 15.9432 15.2037 16.2486 14.6737 16.4617C14.1436 16.6748 13.5307 16.8434 12.8348 16.9677C12.1388 17.092 11.5204 17.1701 10.9795 17.2021C10.4387 17.234 9.83655 17.25 9.1731 17.25C8.6106 17.25 8.09858 17.2393 7.63702 17.2181C7.17548 17.1967 6.64363 17.1524 6.04147 17.0849C5.4393 17.0174 4.88942 16.9109 4.39183 16.7653C3.89423 16.6197 3.40024 16.4368 2.90986 16.2167C2.41947 15.9965 1.98317 15.7088 1.60097 15.3537C1.21875 14.9986 0.908655 14.5902 0.670673 14.1286C0.223558 13.255 0 12.0796 0 10.6023C0 8.919 0.490385 7.51275 1.47115 6.38352C1.27644 5.80114 1.17909 5.19744 1.17909 4.57244C1.17909 3.74858 1.36298 2.97443 1.73077 2.25C2.50961 2.25 3.19472 2.39027 3.78606 2.67081C4.37741 2.95135 5.05889 3.38992 5.83053 3.98651C6.89062 3.73793 8.00482 3.61364 9.1731 3.61364C10.2403 3.61364 11.25 3.72727 12.2019 3.95455C12.9591 3.37216 13.6334 2.94248 14.2247 2.66549C14.8161 2.3885 15.4976 2.25 16.2692 2.25C16.637 2.97443 16.8209 3.74858 16.8209 4.57244C16.8209 5.19034 16.7236 5.78693 16.5289 6.36221C17.5096 7.49858 18 8.91195 18 10.6023Z" fill="#8E9CA1"/>
</g>
<defs>
<clipPath id="clip0_201_4230">
<rect width="18" height="18" fill="white"/>
</clipPath>
</defs>
</svg>
