<svg width="18" height="18" viewBox="0 0 18 18" fill="none" xmlns="http://www.w3.org/2000/svg">
<g clip-path="url(#clip0_201_4232)">
<path d="M5.6592 16.3116C12.4524 16.3116 16.1676 10.6848 16.1676 5.80317C16.1676 5.64477 16.1676 5.48277 16.1676 5.32437C16.8865 4.80175 17.5069 4.15574 18 3.41637C17.3261 3.71444 16.6114 3.90981 15.8796 3.99597C16.6504 3.53488 17.2274 2.80949 17.5032 1.95477C16.7776 2.38515 15.9838 2.68831 15.156 2.85117C14.5988 2.25982 13.8624 1.86847 13.0606 1.73761C12.2587 1.60675 11.436 1.74367 10.7198 2.12719C10.0035 2.51073 9.43357 3.11951 9.09795 3.85945C8.7624 4.59937 8.6799 5.42925 8.8632 6.22077C7.39499 6.14706 5.9587 5.76538 4.64758 5.10052C3.33646 4.43566 2.17984 3.50248 1.2528 2.36157C0.781463 3.17468 0.637483 4.13678 0.850132 5.05226C1.06279 5.96773 1.61611 6.76786 2.3976 7.28997C1.81042 7.27657 1.23506 7.12223 0.72 6.83997V6.88677C0.719764 7.7397 1.01472 8.56642 1.55479 9.22657C2.09485 9.88672 2.84674 10.3396 3.6828 10.5084C3.13945 10.657 2.56925 10.6792 2.016 10.5732C2.25215 11.3065 2.71148 11.9477 3.3298 12.4072C3.94812 12.8668 4.69455 13.1217 5.4648 13.1364C4.15715 14.1642 2.54166 14.7221 0.8784 14.7204C0.584585 14.716 0.291282 14.6943 0 14.6556C1.68809 15.7399 3.65287 16.3148 5.6592 16.3116Z" fill="#8E9CA1"/>
</g>
<defs>
<clipPath id="clip0_201_4232">
<rect width="18" height="18" fill="white"/>
</clipPath>
</defs>
</svg>
