<svg width="18" height="18" viewBox="0 0 18 18" fill="none" xmlns="http://www.w3.org/2000/svg">
<g clip-path="url(#clip0_201_4245)">
<path d="M8.9976 5.99872C7.345 5.99872 5.99636 7.34738 5.99636 9C5.99636 10.6526 7.345 12.0013 8.9976 12.0013C10.6502 12.0013 11.9988 10.6526 11.9988 9C11.9988 7.34738 10.6502 5.99872 8.9976 5.99872ZM17.999 9C17.999 7.75717 18.0103 6.52558 17.9405 5.28499C17.8706 3.84402 17.542 2.56515 16.4882 1.51144C15.4323 0.455476 14.1557 0.129007 12.7147 0.0592092C11.4719 -0.0105879 10.2404 0.000669698 8.99985 0.000669698C7.75702 0.000669698 6.52546 -0.0105879 5.28489 0.0592092C3.84395 0.129007 2.5651 0.457729 1.51142 1.51144C0.455468 2.56741 0.129004 3.84402 0.0592081 5.28499C-0.0105878 6.52783 0.000669691 7.75943 0.000669691 9C0.000669691 10.2406 -0.0105878 11.4744 0.0592081 12.715C0.129004 14.156 0.45772 15.4348 1.51142 16.4885C2.56735 17.5445 3.84395 17.871 5.28489 17.9408C6.52771 18.0106 7.75927 17.9993 8.99985 17.9993C10.2427 17.9993 11.4742 18.0106 12.7147 17.9408C14.1557 17.871 15.4346 17.5423 16.4882 16.4885C17.5442 15.4326 17.8706 14.156 17.9405 12.715C18.0125 11.4744 17.999 10.2428 17.999 9ZM8.9976 13.6179C6.44216 13.6179 4.3798 11.5555 4.3798 9C4.3798 6.44452 6.44216 4.38213 8.9976 4.38213C11.553 4.38213 13.6153 6.44452 13.6153 9C13.6153 11.5555 11.553 13.6179 8.9976 13.6179ZM13.8045 5.27148C13.2079 5.27148 12.726 4.78966 12.726 4.193C12.726 3.59635 13.2079 3.11452 13.8045 3.11452C14.4011 3.11452 14.8829 3.59635 14.8829 4.193C14.8832 4.33468 14.8553 4.475 14.8013 4.60593C14.7471 4.73686 14.6677 4.85581 14.5675 4.956C14.4673 5.05618 14.3483 5.13561 14.2174 5.18975C14.0865 5.24389 13.9462 5.27166 13.8045 5.27148Z" fill="#8E9CA1"/>
</g>
<defs>
<clipPath id="clip0_201_4245">
<rect width="18" height="18" fill="white"/>
</clipPath>
</defs>
</svg>
