<svg width="18" height="18" viewBox="0 0 18 18" fill="none" xmlns="http://www.w3.org/2000/svg">
<g clip-path="url(#clip0_201_4236)">
<path d="M4.2659 4.73749H0.475098V17.9998H4.2659V4.73749Z" fill="#8E9CA1"/>
<path d="M13.2625 4.73749C10.6201 4.73749 10.1629 5.70229 9.94689 6.63109V4.73749H6.15967V17.9998H9.94689V10.4219C9.94689 9.19432 10.6129 8.52833 11.8405 8.52833C13.0681 8.52833 13.7341 9.17992 13.7341 10.4219V17.9998H17.5249V11.3687C17.5249 7.57793 17.0317 4.73749 13.2625 4.73749Z" fill="#8E9CA1"/>
<path d="M2.3687 3.7872C3.4145 3.7872 4.2623 2.93941 4.2623 1.8936C4.2623 0.847793 3.4145 0 2.3687 0C1.32289 0 0.475098 0.847793 0.475098 1.8936C0.475098 2.93941 1.32289 3.7872 2.3687 3.7872Z" fill="#8E9CA1"/>
</g>
<defs>
<clipPath id="clip0_201_4236">
<rect width="18" height="18" fill="white"/>
</clipPath>
</defs>
</svg>
