<svg width="23" height="167" viewBox="0 0 23 167" fill="none" xmlns="http://www.w3.org/2000/svg">
<path d="M16 92.7212L7.27273 92.7212L7.27273 87.0451L8.59801 87.0451L8.59801 91.1403L10.9673 91.1403L10.9673 87.3391L12.2926 87.3391L12.2926 91.1403L14.6747 91.1403L14.6747 87.011L16 87.011L16 92.7212ZM7.27273 83.5111L10.4687 81.5893L10.4687 81.5211L7.27273 79.5907L7.27273 77.7881L11.6364 80.4771L16 77.7455L16 79.5779L12.8253 81.5211L12.8253 81.5893L16 83.5325L16 85.3563L11.6364 82.5992L7.27273 85.3222L7.27273 83.5111ZM16 75.947L7.27273 75.947L7.27273 72.6743C7.27273 72.0038 7.39773 71.4413 7.64773 70.9868C7.89773 70.5294 8.24148 70.1842 8.67898 69.9513C9.11363 69.7155 9.60795 69.5976 10.1619 69.5976C10.7216 69.5976 11.2187 69.7155 11.6534 69.9513C12.0881 70.1871 12.4304 70.5351 12.6804 70.9953C12.9276 71.4555 13.0511 72.0223 13.0511 72.6956L13.0511 74.8646L11.7514 74.8646L11.7514 72.9087C11.7514 72.5166 11.6832 72.1956 11.5469 71.9456C11.4105 71.6956 11.223 71.5109 10.9844 71.3916C10.7457 71.2695 10.4716 71.2084 10.1619 71.2084C9.85227 71.2084 9.57954 71.2695 9.34375 71.3916C9.10795 71.5109 8.92471 71.697 8.79403 71.9499C8.66051 72.1999 8.59375 72.5223 8.59375 72.9172L8.59375 74.366L16 74.366L16 75.947ZM16 67.6244L7.27273 67.6244L7.27273 66.0434L14.6747 66.0434L14.6747 62.1996L16 62.1996L16 67.6244ZM11.6364 52.769C12.5767 52.769 13.3821 52.9452 14.0526 53.2974C14.7202 53.6469 15.2315 54.1241 15.5866 54.7293C15.9418 55.3315 16.1193 56.0148 16.1193 56.779C16.1193 57.5432 15.9418 58.2278 15.5866 58.833C15.2287 59.4352 14.7159 59.9125 14.0483 60.2648C13.3778 60.6142 12.5739 60.7889 11.6364 60.7889C10.696 60.7889 9.89204 60.6142 9.22443 60.2648C8.55398 59.9125 8.04119 59.4352 7.68608 58.833C7.33096 58.2278 7.15341 57.5432 7.15341 56.779C7.15341 56.0148 7.33096 55.3315 7.68608 54.7293C8.04119 54.1241 8.55398 53.6469 9.22443 53.2974C9.89204 52.9452 10.696 52.769 11.6364 52.769ZM11.6364 54.3585C10.9744 54.3585 10.4162 54.4622 9.96165 54.6696C9.50426 54.8741 9.15909 55.1582 8.92613 55.5219C8.69034 55.8855 8.57244 56.3045 8.57244 56.779C8.57244 57.2534 8.69034 57.6724 8.92613 58.0361C9.15909 58.3997 9.50426 58.6852 9.96165 58.8926C10.4162 59.0972 10.9744 59.1994 11.6364 59.1994C12.2983 59.1994 12.858 59.0972 13.3153 58.8926C13.7699 58.6852 14.1151 58.3997 14.3509 58.0361C14.5838 57.6724 14.7003 57.2534 14.7003 56.779C14.7003 56.3045 14.5838 55.8855 14.3509 55.5219C14.1151 55.1582 13.7699 54.8741 13.3153 54.6696C12.858 54.4622 12.2983 54.3585 11.6364 54.3585ZM16 50.6744L7.27273 50.6744L7.27272 47.4016C7.27272 46.7312 7.3892 46.1687 7.62216 45.7141C7.85511 45.2567 8.18182 44.9116 8.60227 44.6786C9.01988 44.4428 9.5071 44.3249 10.0639 44.3249C10.6236 44.3249 11.1094 44.4442 11.5213 44.6829C11.9304 44.9187 12.2472 45.2667 12.4716 45.7269C12.6932 46.1871 12.804 46.7525 12.804 47.4229L12.804 49.7539L11.4915 49.7539L11.4915 47.636C11.4915 47.244 11.4375 46.9229 11.3295 46.6729C11.2187 46.4229 11.0582 46.2383 10.848 46.119C10.6349 45.9968 10.3736 45.9357 10.0639 45.9357C9.75426 45.9357 9.49005 45.9968 9.2713 46.119C9.04971 46.2411 8.8821 46.4272 8.76846 46.6772C8.65199 46.9272 8.59375 47.2496 8.59375 47.6445L8.59375 49.0934L16 49.0934L16 50.6744ZM12.0455 46.1658L16 44.0053L16 45.7695L12.0455 47.8917L12.0455 46.1658ZM16 42.2697L7.27272 42.2697L7.27272 36.5935L8.59801 36.5935L8.59801 40.6887L10.9673 40.6887L10.9673 36.8876L12.2926 36.8876L12.2926 40.6887L14.6747 40.6887L14.6747 36.5594L16 36.5594L16 42.2697ZM7.27272 23.6322L16 23.6322L16 25.0384L10.0554 29.1506L10.0554 29.2231L16 29.2231L16 30.804L7.27272 30.804L7.27272 29.3893L13.2216 25.2813L13.2216 25.2046L7.27272 25.2046L7.27272 23.6322ZM11.6364 13.5112C12.5767 13.5112 13.3821 13.6874 14.0526 14.0396C14.7202 14.3891 15.2315 14.8663 15.5866 15.4714C15.9418 16.0737 16.1193 16.757 16.1193 17.5212C16.1193 18.2854 15.9418 18.97 15.5866 19.5751C15.2287 20.1774 14.7159 20.6547 14.0483 21.007C13.3778 21.3564 12.5739 21.5311 11.6364 21.5311C10.696 21.5311 9.89204 21.3564 9.22443 21.007C8.55397 20.6547 8.04119 20.1774 7.68608 19.5751C7.33096 18.97 7.15341 18.2854 7.15341 17.5212C7.15341 16.757 7.33096 16.0737 7.68608 15.4714C8.04119 14.8663 8.55397 14.3891 9.22443 14.0396C9.89204 13.6874 10.696 13.5112 11.6364 13.5112ZM11.6364 15.1007C10.9744 15.1007 10.4162 15.2044 9.96164 15.4118C9.50426 15.6163 9.15909 15.9004 8.92613 16.2641C8.69034 16.6277 8.57244 17.0467 8.57244 17.5212C8.57244 17.9956 8.69034 18.4146 8.92613 18.7783C9.15909 19.1419 9.50426 19.4274 9.96164 19.6348C10.4162 19.8393 10.9744 19.9416 11.6364 19.9416C12.2983 19.9416 12.858 19.8393 13.3153 19.6348C13.7699 19.4274 14.1151 19.1419 14.3508 18.7783C14.5838 18.4146 14.7003 17.9956 14.7003 17.5212C14.7003 17.0467 14.5838 16.6277 14.3508 16.2641C14.1151 15.9004 13.7699 15.6163 13.3153 15.4118C12.858 15.2044 12.2983 15.1007 11.6364 15.1007ZM16 9.80256L7.27272 12.2656L7.27272 10.5653L13.6861 8.9929L13.6861 8.91193L7.27272 7.23295L7.27272 5.68608L13.6903 4.00284L13.6903 3.92614L7.27272 2.35369L7.27272 0.653408L16 3.11648L16 4.67614L9.87642 6.42329L9.87642 6.49148L16 8.2429L16 9.80256Z" fill="white"/>
<path d="M10.9697 166.53C11.2626 166.823 11.7374 166.823 12.0303 166.53L16.8033 161.757C17.0962 161.464 17.0962 160.99 16.8033 160.697C16.5104 160.404 16.0355 160.404 15.7426 160.697L11.5 164.939L7.25736 160.697C6.96447 160.404 6.48959 160.404 6.1967 160.697C5.90381 160.99 5.90381 161.464 6.1967 161.757L10.9697 166.53ZM10.75 109L10.75 166L12.25 166L12.25 109L10.75 109Z" fill="white"/>
</svg>
